<?xml version="1.0" standalone="no"?>
<!DOCTYPE svg PUBLIC "-//W3C//DTD SVG 20010904//EN"
 "http://www.w3.org/TR/2001/REC-SVG-20010904/DTD/svg10.dtd">
<svg version="1.0" xmlns="http://www.w3.org/2000/svg"
 width="300.000000pt" height="300.000000pt" viewBox="0 0 300.000000 300.000000"
 preserveAspectRatio="xMidYMid meet">
<metadata>
Created by potrace 1.10, written by Peter Selinger 2001-2011
</metadata>
<g transform="translate(0.000000,300.000000) scale(0.100000,-0.100000)"
fill="#000000" stroke="none">
<path d="M1260 2978 c-133 -27 -258 -64 -330 -95 -66 -29 -209 -102 -220 -113
-3 -3 -39 -27 -80 -55 -108 -72 -282 -250 -362 -370 -133 -200 -194 -351 -247
-613 -14 -69 -14 -395 0 -464 53 -262 112 -408 247 -611 164 -249 455 -472
742 -570 169 -58 289 -77 495 -77 170 0 263 12 410 54 383 107 737 401 918
761 75 149 106 245 146 443 14 71 14 390 0 466 -100 531 -421 936 -909 1149
-75 33 -201 68 -338 96 -64 13 -409 12 -472 -1z m473 -24 c394 -71 717 -268
949 -579 121 -162 222 -384 255 -555 2 -14 11 -59 19 -100 26 -136 18 -354
-20 -545 -20 -101 -86 -272 -149 -387 -120 -219 -327 -432 -545 -559 -126 -74
-305 -144 -422 -166 -14 -2 -56 -10 -95 -18 -101 -19 -345 -19 -452 0 -400 72
-722 268 -957 582 -119 160 -221 383 -253 553 -2 14 -10 57 -18 97 -19 96 -18
350 1 456 71 395 269 718 583 952 130 97 335 198 476 235 191 49 460 64 628
34z"/>
<path d="M1429 2893 c-1 -5 -1 -16 0 -25 2 -13 -5 -18 -23 -18 -19 0 -26 5
-26 20 0 11 -4 20 -10 20 -5 0 -10 -25 -10 -56 0 -40 3 -54 13 -51 6 2 12 15
12 28 0 17 7 25 23 27 18 3 22 -1 22 -23 0 -15 5 -25 11 -23 6 2 10 7 10 11
-1 4 -1 27 -1 52 0 25 -4 45 -10 45 -5 0 -11 -3 -11 -7z"/>
<path d="M1480 2890 c0 -5 5 -10 10 -10 6 0 10 -16 10 -35 0 -19 -4 -35 -10
-35 -5 0 -10 -4 -10 -10 0 -5 14 -10 30 -10 17 0 30 5 30 10 0 6 -4 10 -10 10
-5 0 -10 16 -10 35 0 19 5 35 10 35 6 0 10 5 10 10 0 6 -13 10 -30 10 -16 0
-30 -4 -30 -10z"/>
<path d="M1570 2861 c0 -22 -3 -46 -6 -55 -5 -13 2 -16 35 -16 23 0 41 5 41
10 0 6 -12 10 -26 10 -26 0 -26 2 -22 45 4 34 2 45 -8 45 -10 0 -14 -13 -14
-39z"/>
<path d="M1256 2859 c-14 -21 -12 -42 7 -66 12 -16 63 -17 72 -2 11 17 -3 23
-20 9 -12 -10 -18 -10 -30 0 -30 25 -7 78 29 64 9 -3 16 -1 16 5 0 20 -58 12
-74 -10z"/>
<path d="M1663 2835 c-6 -24 -8 -47 -5 -50 12 -11 72 -4 86 11 33 32 5 84 -46
84 -21 0 -26 -6 -35 -45z m55 23 c17 -17 15 -55 -5 -62 -23 -9 -32 4 -26 42 6
34 12 39 31 20z"/>
<path d="M1786 2830 c-3 -21 -9 -45 -12 -54 -4 -11 -1 -16 10 -16 10 0 16 8
16 21 0 18 2 19 15 9 8 -7 15 -18 15 -25 0 -7 7 -15 15 -19 18 -6 19 -2 4 25
-8 16 -7 23 7 33 24 18 12 40 -29 53 l-35 10 -6 -37z m57 -5 c1 -5 -6 -11 -15
-13 -11 -2 -18 3 -18 13 0 17 30 18 33 0z"/>
<path d="M1080 2824 c0 -27 23 -94 32 -94 4 0 8 11 8 25 0 28 12 32 30 10 7
-8 19 -15 28 -15 12 0 11 5 -6 23 -16 17 -19 26 -11 34 19 19 0 33 -42 33 -29
0 -39 -4 -39 -16z m52 -26 c-10 -10 -15 -10 -22 2 -6 9 -5 17 3 22 18 11 33
-10 19 -24z"/>
<path d="M1897 2787 c-9 -28 -15 -52 -14 -53 1 -1 17 -5 36 -9 23 -5 31 -4 27
4 -4 6 -14 11 -22 11 -8 0 -14 7 -14 16 0 12 7 14 33 9 30 -6 31 -5 13 9 -10
8 -24 17 -30 19 -6 2 -8 8 -4 12 5 5 19 3 33 -3 16 -7 25 -8 25 -1 0 5 -8 12
-17 15 -10 3 -25 9 -34 14 -13 7 -19 -2 -32 -43z"/>
<path d="M983 2793 c-41 -28 -23 -93 26 -93 28 0 61 26 61 49 0 14 -45 61 -57
60 -4 0 -18 -7 -30 -16z m45 -15 c26 -26 5 -79 -25 -60 -17 12 -24 44 -12 58
14 17 22 17 37 2z"/>
<path d="M1992 2749 c-15 -37 -17 -49 -7 -49 7 0 19 15 26 33 12 31 12 31 16
7 12 -84 25 -91 50 -27 19 47 19 50 4 55 -6 2 -11 -5 -11 -17 0 -34 -17 -32
-24 3 -10 53 -30 51 -54 -5z"/>
<path d="M887 2754 c-15 -8 -26 -18 -24 -22 23 -50 43 -82 50 -82 5 0 7 10 3
23 -4 15 1 27 17 40 l22 18 -32 -6 c-36 -7 -46 9 -13 20 11 3 20 11 20 16 0
12 -10 11 -43 -7z"/>
<path d="M2160 2672 c-20 -63 -7 -81 33 -44 28 26 36 17 16 -20 -9 -16 -8 -22
2 -29 16 -10 92 58 82 73 -3 6 -18 -3 -34 -18 -29 -28 -38 -20 -18 18 18 33
-9 41 -40 12 -31 -29 -36 -26 -17 11 14 27 13 45 -2 45 -4 0 -14 -22 -22 -48z"/>
<path d="M757 2677 l-26 -22 23 -42 23 -41 33 21 c18 11 28 23 21 25 -6 2 -19
-2 -27 -9 -13 -10 -17 -10 -25 2 -6 10 -3 17 11 23 11 5 20 13 20 18 0 10 -11
10 -30 -1 -8 -6 -18 -7 -23 -4 -5 3 3 13 18 23 15 10 23 20 18 23 -5 3 -21 -4
-36 -16z"/>
<path d="M1275 2675 c-183 -39 -290 -83 -436 -180 -266 -177 -447 -447 -515
-767 -26 -121 -24 -353 4 -473 56 -242 165 -441 330 -603 168 -165 357 -268
597 -324 127 -30 362 -30 490 0 172 40 278 86 417 178 346 230 544 611 533
1024 -4 162 -26 270 -86 419 -123 310 -397 570 -719 683 -190 66 -425 82 -615
43z m455 -15 c363 -78 643 -289 823 -620 145 -268 169 -638 62 -940 -137 -383
-479 -678 -880 -760 -123 -25 -348 -25 -465 -1 -476 100 -833 457 -930 931
-24 117 -24 345 -1 460 49 236 157 436 326 605 169 168 367 275 600 325 114
24 353 24 465 0z"/>
<path d="M1225 2599 c-55 -5 -112 -14 -128 -20 -15 -6 -43 -33 -63 -60 -20
-27 -39 -49 -43 -49 -3 0 -27 -20 -52 -44 -34 -32 -49 -56 -58 -92 -7 -27 -19
-62 -27 -77 -16 -33 -19 -67 -4 -67 6 0 10 -6 10 -14 0 -7 21 -36 48 -64 l47
-51 60 14 c33 8 79 20 102 26 37 11 44 11 61 -4 10 -9 24 -17 30 -17 13 0 66
-87 67 -110 0 -8 -4 -20 -8 -27 -6 -8 1 -22 17 -40 28 -30 30 -51 12 -128 -9
-41 -9 -57 4 -92 8 -24 20 -43 26 -43 12 0 84 -133 84 -156 0 -8 7 -26 16 -39
15 -23 15 -25 0 -25 -17 0 -101 -77 -108 -99 -6 -21 -103 44 -161 108 -52 59
-59 76 -24 65 31 -11 76 -7 95 8 22 19 40 66 34 94 -7 37 -57 74 -100 74 -20
0 -44 -4 -52 -10 -21 -13 -29 6 -23 59 7 65 44 131 102 184 28 25 51 48 51 51
0 10 -102 -44 -142 -76 -69 -54 -138 -194 -138 -280 0 -20 -13 -45 -39 -77
-123 -148 -187 -307 -205 -512 -6 -60 4 -197 20 -294 4 -22 7 -46 7 -53 0 -6
3 -10 5 -7 3 3 4 36 3 74 -2 73 18 191 44 256 23 58 58 125 67 131 4 3 8 -28
8 -69 0 -115 25 -229 76 -343 21 -48 116 -164 134 -164 5 0 0 21 -11 46 -45
101 -71 233 -76 384 l-5 145 36 116 37 116 75 -29 c80 -31 127 -36 212 -23 51
8 52 7 52 -18 0 -23 16 -37 43 -37 8 0 7 3 -1 9 -22 13 -23 97 -3 123 23 28
71 19 71 -13 0 -20 4 -21 42 -15 44 7 101 43 118 76 10 19 9 19 -32 4 -27 -9
-57 -13 -81 -8 -36 6 -37 7 -23 23 9 10 16 20 16 24 0 3 20 27 45 53 35 36 44
51 39 69 -3 12 -1 26 5 29 6 4 13 29 17 57 5 40 12 53 35 66 38 23 49 59 49
162 l0 86 35 28 c33 26 95 121 110 166 6 20 3 21 -44 21 -47 0 -54 4 -100 48
-35 34 -55 63 -68 102 -20 62 -52 117 -83 145 -23 21 -28 44 -5 25 13 -11 14
-10 9 4 -3 9 -16 16 -29 16 -12 0 -39 7 -60 16 -41 17 -68 13 -59 -9 8 -23
-42 -30 -72 -11 -18 12 -24 24 -22 43 4 31 3 31 -127 20z m105 -21 c0 -5 -5
-8 -11 -8 -6 0 -3 -7 5 -16 9 -8 16 -19 16 -23 0 -11 47 -31 75 -31 13 0 32
10 42 23 17 21 60 27 48 6 -3 -5 1 -6 9 -3 10 4 16 1 16 -7 0 -7 3 -10 6 -6 8
8 54 -47 54 -64 0 -7 3 -9 7 -6 7 8 43 -47 43 -66 0 -6 7 -25 15 -41 11 -20
12 -33 5 -40 -7 -7 -10 -5 -10 6 0 9 -14 29 -30 45 -30 30 -53 33 -162 24 -7
-1 -37 1 -66 5 -47 6 -56 4 -77 -16 -14 -13 -25 -19 -25 -13 0 17 -54 35 -96
31 -32 -2 -40 -8 -49 -32 -7 -22 -7 -30 3 -33 7 -3 12 -22 11 -51 l-1 -47 -12
35 c-33 96 -58 130 -98 130 -25 0 -32 -6 -50 -47 -11 -27 -29 -67 -39 -90 -25
-56 -24 -71 7 -85 20 -9 29 -9 42 0 33 23 45 25 72 8 38 -22 182 -23 200 -1
11 13 15 13 41 0 34 -18 91 -19 107 -3 10 10 17 10 32 0 24 -15 63 -15 115 -1
44 12 58 27 81 82 l16 38 54 -51 c34 -32 62 -50 78 -50 13 0 31 -3 40 -6 14
-5 14 -9 -2 -38 -9 -17 -20 -32 -24 -34 -5 -2 -8 -9 -8 -16 0 -7 -20 -32 -45
-55 -43 -40 -45 -45 -46 -99 -1 -31 -2 -70 -3 -87 -2 -16 -4 -40 -4 -52 -1
-13 -5 -22 -10 -20 -4 1 -8 -2 -10 -8 -2 -5 -13 -15 -25 -21 -20 -11 -31 -44
-54 -159 -3 -16 -12 -34 -19 -38 -8 -4 -14 -15 -14 -22 0 -8 -8 -15 -19 -15
-13 0 -24 -14 -36 -46 -16 -44 -16 -46 1 -59 11 -8 22 -15 27 -15 4 0 7 -4 7
-10 0 -17 -26 -11 -45 10 -10 11 -29 20 -43 20 -14 0 -23 3 -19 6 3 4 -1 23
-9 43 -8 20 -12 46 -9 58 4 17 2 21 -10 17 -13 -6 -20 6 -16 29 0 4 -4 7 -10
7 -5 0 -17 17 -26 37 -8 21 -22 43 -32 50 -9 7 -12 13 -8 13 5 0 1 8 -8 17
-18 17 -17 33 4 156 4 26 6 45 3 42 -12 -11 -35 41 -37 82 -1 25 -6 48 -12 52
-5 3 -18 21 -28 39 -11 17 -27 34 -36 37 -10 3 -20 12 -23 20 -7 20 -63 19
-111 -1 -42 -17 -145 -28 -145 -14 0 5 -11 21 -25 36 -35 38 -57 85 -46 98 5
6 16 39 24 73 13 50 25 69 64 107 26 25 54 46 61 46 6 0 12 6 12 12 0 7 19 30
43 52 39 37 48 41 125 51 99 12 132 13 132 3z m79 -224 c26 -5 31 -11 31 -35
l0 -28 -30 17 c-39 23 -64 8 -68 -41 -3 -31 1 -39 21 -48 18 -8 30 -8 45 0 28
15 32 14 32 -9 0 -44 -82 -54 -124 -15 -47 43 -30 147 27 158 12 2 25 5 28 6
4 0 21 -2 38 -5z m-319 -18 c0 -8 13 -46 29 -85 16 -38 26 -73 23 -76 -3 -3
-16 -5 -29 -5 -16 0 -23 6 -23 20 0 16 -7 20 -34 20 -26 0 -36 -5 -41 -20 -4
-13 -15 -20 -32 -20 -16 0 -23 5 -21 13 64 177 58 167 94 167 22 0 34 -5 34
-14z m180 -1 c0 -8 -8 -15 -17 -15 -15 0 -18 -8 -15 -55 3 -40 8 -55 19 -55 8
0 13 -7 11 -17 -2 -14 -15 -19 -56 -21 -47 -3 -52 -1 -52 17 0 12 6 21 13 21
8 0 12 18 12 55 0 37 -4 55 -12 55 -7 0 -13 7 -13 15 0 12 13 15 55 15 42 0
55 -3 55 -15z m344 -16 c30 -35 32 -58 11 -99 -16 -31 -62 -50 -122 -50 l-33
0 0 90 0 90 59 0 c54 0 62 -3 85 -31z m-199 -40 c4 -6 13 -8 21 -5 9 3 14 -1
14 -12 0 -10 -9 -18 -23 -19 -12 -1 -31 -4 -42 -5 -15 -2 -21 4 -23 25 -3 23
0 27 22 27 14 0 28 -5 31 -11z m-340 -492 c-18 -43 -20 -128 -3 -145 14 -14
50 -16 64 -2 6 6 23 6 47 -1 92 -25 57 -141 -36 -124 -29 6 -37 3 -47 -14 -9
-18 -6 -28 19 -65 17 -24 50 -61 73 -81 37 -32 40 -36 18 -32 -14 3 -53 16
-87 29 -79 29 -81 27 -123 -112 -49 -159 -51 -310 -6 -514 9 -38 14 -72 11
-74 -3 -3 -5 2 -5 11 0 10 -4 17 -8 17 -9 0 -32 48 -55 115 -17 47 -34 152
-42 250 -3 38 -9 73 -14 78 -22 22 -48 -1 -88 -83 -24 -46 -43 -82 -44 -80 0
3 -3 16 -5 30 -3 14 0 54 7 90 6 36 13 78 16 94 13 77 88 224 158 310 52 64
65 88 65 118 0 39 38 148 65 190 32 48 41 45 20 -5z m326 -434 c-8 -30 -41
-45 -41 -19 0 11 35 46 46 46 1 0 -1 -12 -5 -27z"/>
<path d="M1042 2275 c-10 -22 -9 -25 7 -25 14 0 17 6 13 25 -2 14 -5 25 -7 25
-1 0 -7 -11 -13 -25z"/>
<path d="M1520 2265 c0 -59 9 -67 47 -40 25 18 23 62 -4 83 -33 24 -43 15 -43
-43z"/>
<path d="M2346 2043 c-6 -14 -5 -15 5 -6 7 7 10 15 7 18 -3 3 -9 -2 -12 -12z"/>
<path d="M1828 1872 c65 -65 92 -123 92 -200 0 -38 -2 -43 -17 -36 -10 4 -39
9 -65 12 -107 9 -156 -100 -75 -169 17 -16 34 -19 79 -16 l57 3 -16 -29 c-50
-98 -132 -195 -192 -227 -13 -6 -20 -14 -17 -17 11 -11 114 21 183 57 l72 39
37 -112 37 -111 -6 -125 c-7 -141 -41 -304 -80 -393 -14 -32 -22 -58 -18 -58
18 0 111 111 139 166 54 108 92 266 92 384 0 64 10 56 39 -35 36 -114 54 -200
60 -300 l7 -100 24 75 c19 61 23 96 23 190 -1 218 -65 426 -186 605 -30 45
-43 76 -52 130 -27 155 -113 263 -249 315 -23 8 -17 0 32 -48z m141 -126 c33
-59 48 -103 55 -168 3 -32 17 -64 45 -105 72 -106 149 -281 166 -378 18 -104
27 -298 14 -289 -6 3 -18 64 -22 109 -1 11 -4 22 -7 25 -3 3 -13 30 -23 61 -9
31 -27 69 -38 84 -19 23 -24 25 -36 12 -8 -7 -16 -40 -19 -73 -5 -64 -29 -197
-45 -254 -13 -45 -54 -128 -79 -160 l-19 -25 15 50 c28 93 45 199 49 313 4
105 2 120 -27 210 -37 117 -54 152 -73 152 -8 0 -45 -17 -82 -37 l-68 -37 32
36 c17 21 51 70 74 109 50 86 46 103 -22 105 -65 2 -67 2 -89 24 -23 23 -26
72 -5 90 23 19 85 30 113 19 49 -19 62 -5 62 69 -1 39 -7 77 -15 92 -8 14 -14
29 -15 34 0 18 31 -18 59 -68z"/>
<path d="M1330 1153 c0 -24 5 -43 10 -43 6 0 11 6 11 13 1 6 2 18 3 26 2 27
25 22 41 -8 8 -17 29 -38 45 -46 27 -14 32 -14 54 0 36 24 113 18 153 -12 17
-12 37 -23 44 -23 6 0 29 -18 50 -40 27 -28 39 -49 39 -69 0 -16 7 -34 15 -41
8 -7 15 -22 15 -34 0 -18 -2 -17 -19 9 -27 42 -114 123 -148 136 -15 6 -68 12
-117 12 -72 1 -90 -2 -101 -16 -7 -9 -17 -17 -23 -17 -6 0 -14 -4 -17 -10 -4
-6 7 -10 24 -10 20 0 31 5 31 14 0 18 81 27 140 16 72 -14 100 -27 94 -45 -4
-9 -1 -15 9 -15 37 0 117 -106 117 -155 0 -27 16 -16 29 21 13 37 7 104 -9
104 -6 0 -10 11 -10 25 0 37 -63 118 -103 133 -19 7 -42 21 -52 32 -24 27
-159 30 -173 4 -8 -15 -13 -14 -41 7 -23 17 -31 30 -29 48 3 22 -1 24 -40 25
l-42 1 0 -42z"/>
<path d="M1150 1117 c-32 -11 -28 -12 57 -15 105 -3 98 4 108 -109 6 -58 10
-73 24 -73 84 -1 218 -13 239 -21 56 -22 112 -111 112 -181 0 -94 -83 -179
-172 -177 -119 3 -183 105 -130 209 27 54 77 82 137 78 28 -3 58 -8 68 -12 10
-5 17 -4 17 2 0 5 -18 17 -40 26 -127 51 -240 -32 -240 -174 0 -79 23 -118 88
-150 104 -51 193 -34 266 51 70 82 79 163 30 261 -42 83 -113 119 -243 124
l-94 3 -29 77 c-15 43 -34 81 -40 86 -19 11 -117 8 -158 -5z"/>
<path d="M1508 753 l-3 -48 -42 -3 c-54 -4 -57 -22 -4 -22 44 0 55 -15 52 -67
-2 -24 2 -33 13 -33 12 0 16 10 16 34 0 57 8 66 56 66 59 0 56 18 -3 22 l-48
3 -3 48 c-2 32 -8 47 -17 47 -9 0 -15 -15 -17 -47z m27 -63 c3 -5 1 -10 -4
-10 -6 0 -11 5 -11 10 0 6 2 10 4 10 3 0 8 -4 11 -10z"/>
<path d="M687 2634 c-3 -4 0 -22 8 -40 16 -39 6 -44 -32 -14 -25 19 -43 19
-43 -1 0 -5 6 -9 13 -9 6 0 23 -9 37 -20 28 -22 60 -26 60 -7 0 14 -24 84 -31
92 -3 3 -8 2 -12 -1z"/>
<path d="M2315 2610 c10 -16 -24 -62 -41 -56 -20 8 -17 -7 6 -27 24 -20 32
-22 28 -4 -4 20 32 66 48 60 20 -7 18 7 -3 23 -21 16 -47 18 -38 4z"/>
<path d="M583 2551 c-26 -22 -30 -36 -8 -28 16 7 58 -40 49 -54 -10 -17 13 -9
31 11 13 14 14 20 5 20 -21 0 -59 40 -53 56 7 18 3 17 -24 -5z"/>
<path d="M2380 2555 c11 -13 9 -21 -8 -45 -34 -46 -25 -59 12 -19 24 26 37 34
45 26 6 -6 14 -8 17 -4 8 8 -47 56 -65 57 -11 0 -11 -3 -1 -15z"/>
<path d="M506 2479 c-15 -17 -25 -33 -22 -36 3 -4 12 -1 18 5 9 9 19 5 44 -19
20 -19 34 -27 39 -20 3 6 -8 23 -25 37 -22 19 -28 30 -21 37 13 13 14 27 4 27
-5 -1 -21 -14 -37 -31z"/>
<path d="M2437 2464 c-21 -19 -35 -39 -31 -45 4 -6 13 -4 25 7 15 14 21 15 34
4 14 -12 14 -15 -1 -31 -32 -35 -3 -36 36 -1 24 23 36 40 30 46 -6 6 -15 4
-25 -4 -12 -10 -18 -10 -30 0 -14 12 -14 15 0 30 30 34 0 28 -38 -6z"/>
<path d="M436 2401 c-4 -6 2 -28 14 -50 24 -48 25 -57 6 -64 -18 -7 -69 31
-61 44 14 21 -12 6 -29 -17 -18 -26 -18 -26 0 -21 20 6 57 -18 66 -43 3 -9 13
-2 32 23 16 20 26 43 23 51 -7 17 11 36 35 36 30 0 20 15 -19 29 -21 8 -43 16
-49 18 -7 2 -15 0 -18 -6z m54 -37 c0 -17 -22 -14 -28 4 -2 7 3 12 12 12 9 0
16 -7 16 -16z"/>
<path d="M2554 2332 l-41 -28 19 -27 c21 -29 64 -37 86 -15 17 17 15 52 -5 77
l-18 21 -41 -28z m55 -27 c2 -10 -5 -25 -15 -32 -15 -11 -20 -10 -35 3 -17 16
-17 17 4 35 26 21 41 20 46 -6z"/>
<path d="M321 2245 c-13 -20 -21 -39 -17 -42 4 -4 11 -1 16 6 6 11 14 9 40 -9
21 -15 35 -19 42 -12 6 6 -2 17 -25 31 -26 16 -34 27 -30 41 8 28 1 25 -26
-15z"/>
<path d="M2655 2251 c3 -5 -8 -19 -24 -30 -21 -15 -31 -18 -34 -9 -2 7 -7 10
-11 6 -4 -3 1 -19 11 -34 14 -21 19 -24 21 -12 4 20 49 51 62 43 13 -8 13 1 0
26 -6 10 -15 19 -21 19 -6 0 -8 -4 -4 -9z"/>
<path d="M270 2154 c-13 -34 -13 -39 3 -26 9 8 20 6 41 -7 15 -10 27 -21 27
-25 -3 -19 1 -18 14 4 19 33 19 43 -1 36 -20 -8 -67 21 -59 34 4 6 1 10 -5 10
-6 0 -15 -12 -20 -26z"/>
<path d="M2677 2173 c-4 -4 -4 -22 -1 -41 5 -27 4 -34 -7 -30 -8 2 -15 17 -17
31 -4 33 -22 36 -22 4 0 -30 34 -62 56 -53 13 5 15 14 11 41 -4 26 -2 35 8 35
8 0 17 -11 21 -25 3 -14 10 -22 15 -19 10 6 -7 44 -25 56 -14 10 -31 10 -39 1z"/>
<path d="M240 2091 c0 -5 9 -13 20 -16 30 -10 24 -23 -12 -27 -17 -2 -33 -8
-35 -15 -5 -15 74 -56 89 -47 6 4 -3 14 -23 25 l-34 18 43 7 c23 3 45 10 47
14 3 5 -14 18 -38 29 -48 23 -57 25 -57 12z"/>
<path d="M2705 2060 c-40 -5 -46 -8 -30 -15 30 -13 45 -37 33 -53 -6 -7 -8
-15 -4 -19 10 -10 76 58 76 79 0 10 -6 17 -12 16 -7 0 -35 -4 -63 -8z m42 -27
c-9 -9 -19 -14 -23 -11 -10 10 6 28 24 28 15 0 15 -1 -1 -17z"/>
<path d="M181 1960 c-6 -18 -6 -30 0 -30 5 0 9 4 9 9 0 16 69 -11 72 -28 2
-10 8 -4 15 17 7 18 8 32 2 32 -5 0 -9 -4 -9 -10 0 -5 -15 -3 -32 5 -18 8 -32
19 -30 25 5 24 -17 7 -27 -20z"/>
<path d="M2758 1962 c-42 -19 -47 -38 -19 -73 18 -23 20 -23 38 -6 11 9 25 17
31 17 19 0 22 16 11 49 -12 35 -11 35 -61 13z m50 -29 c-4 -22 -22 -20 -26 1
-2 10 3 16 13 16 10 0 15 -7 13 -17z m-38 -12 c0 -11 -4 -22 -9 -25 -11 -7
-23 22 -15 35 9 16 24 10 24 -10z"/>
<path d="M2827 1856 c-8 -20 -58 -30 -69 -14 -7 9 -8 5 -4 -12 3 -14 6 -28 6
-32 0 -5 5 -8 11 -8 5 0 7 4 4 10 -8 13 38 23 66 15 18 -6 21 -4 16 10 -4 9
-7 23 -7 31 0 18 -16 18 -23 0z"/>
<path d="M186 1831 c-22 -3 -41 -11 -43 -18 -5 -14 84 -76 92 -64 3 6 -1 14
-9 18 -19 10 -10 53 10 53 8 0 14 5 14 10 0 11 -3 11 -64 1z m18 -36 c-5 -13
-9 -13 -23 -3 -9 7 -18 14 -20 15 -2 2 8 3 22 3 20 0 25 -4 21 -15z"/>
<path d="M2798 1773 c-23 -4 -28 -10 -28 -31 0 -15 5 -34 10 -42 7 -11 10 -8
10 16 0 29 3 32 40 38 22 3 40 11 40 16 0 10 -20 11 -72 3z"/>
<path d="M127 1733 c-11 -11 -8 -58 5 -71 7 -7 24 -12 38 -12 14 0 31 5 38 12
15 15 16 68 1 68 -6 0 -8 -7 -5 -16 14 -35 -39 -59 -63 -30 -9 11 -10 20 -1
35 10 20 1 29 -13 14z"/>
<path d="M2870 1684 c0 -14 -7 -16 -46 -11 -37 4 -44 2 -40 -10 3 -8 6 -22 6
-31 0 -13 2 -13 14 3 10 14 21 17 48 12 32 -5 36 -3 36 19 0 13 -4 27 -9 30
-5 3 -9 -2 -9 -12z"/>
<path d="M107 1603 c-6 -30 0 -44 11 -26 8 12 72 5 72 -8 0 -5 5 -9 10 -9 6 0
10 14 10 30 0 28 -14 41 -22 21 -1 -5 -18 -6 -35 -4 -18 3 -30 9 -27 14 3 5 1
9 -4 9 -5 0 -12 -12 -15 -27z"/>
<path d="M2876 1595 c6 -15 -10 -19 -68 -18 -10 0 -18 -6 -18 -14 0 -9 14 -13
45 -13 33 0 45 -4 45 -15 0 -8 5 -15 10 -15 6 0 10 20 10 45 0 33 -4 45 -15
45 -9 0 -12 -6 -9 -15z"/>
<path d="M187 1533 c-15 -15 -20 -16 -38 -5 -28 18 -49 -1 -49 -44 l0 -34 55
0 c42 0 55 3 55 15 0 10 -10 15 -27 15 l-28 1 29 23 c16 13 27 29 25 35 -3 8
-10 5 -22 -6z m-37 -43 c0 -13 -5 -18 -15 -14 -8 4 -15 12 -15 20 0 8 7 14 15
14 8 0 15 -9 15 -20z"/>
<path d="M2790 1470 c0 -16 5 -30 10 -30 6 0 10 5 10 10 0 6 16 10 35 10 19 0
35 -4 35 -10 0 -5 5 -10 10 -10 6 0 10 14 10 30 0 17 -4 30 -10 30 -5 0 -10
-4 -10 -10 0 -5 -16 -10 -35 -10 -19 0 -35 5 -35 10 0 6 -4 10 -10 10 -5 0
-10 -13 -10 -30z"/>
<path d="M109 1425 c-3 -2 -3 -21 -1 -41 4 -34 6 -36 34 -30 17 3 42 6 55 6
15 0 23 5 20 13 -2 6 -14 11 -25 9 -20 -3 -27 7 -23 31 0 4 -3 7 -9 7 -5 0
-10 -9 -10 -21 0 -12 -5 -19 -12 -16 -7 2 -13 11 -13 20 0 17 -9 30 -16 22z"/>
<path d="M2790 1386 c0 -20 5 -36 11 -36 6 0 9 6 6 13 -7 18 8 41 21 33 6 -3
8 -15 5 -26 -3 -11 0 -20 6 -20 6 0 11 9 11 20 0 11 6 20 14 20 9 0 12 -8 8
-25 -2 -15 0 -25 7 -25 6 0 11 17 11 38 l0 37 -50 3 -50 3 0 -35z"/>
<path d="M163 1314 c-24 -14 -43 -29 -43 -35 0 -12 32 -24 82 -32 29 -4 36 -3
31 9 -3 8 -11 14 -19 14 -16 0 -19 36 -4 45 12 7 13 25 3 25 -5 0 -27 -12 -50
-26z m27 -29 c0 -8 -9 -15 -20 -15 -22 0 -27 15 -7 23 21 9 27 7 27 -8z"/>
<path d="M2779 1303 c-19 -51 30 -87 52 -39 7 14 16 26 21 26 12 0 10 -34 -4
-48 -9 -9 -8 -12 4 -12 25 0 35 58 13 79 -15 15 -18 14 -35 -7 -10 -12 -20
-28 -23 -35 -2 -6 -8 -8 -13 -4 -4 4 -3 21 3 37 7 18 7 30 2 30 -5 0 -14 -12
-20 -27z"/>
<path d="M167 1142 c-10 -10 -17 -28 -17 -40 0 -26 39 -64 58 -57 7 3 18 5 23
5 4 0 15 13 23 28 30 59 -43 112 -87 64z m71 -4 c15 -15 15 -51 0 -66 -39 -39
-100 17 -63 58 20 23 45 26 63 8z"/>
<path d="M2747 1142 c-23 -25 -21 -58 3 -82 26 -26 42 -25 68 3 27 28 28 58 4
80 -24 22 -55 21 -75 -1z m67 -8 c30 -30 13 -74 -29 -74 -42 0 -59 44 -29 74
8 9 22 16 29 16 7 0 21 -7 29 -16z"/>
<path d="M268 942 c-21 -9 -38 -20 -38 -25 0 -5 13 -21 29 -37 20 -21 34 -27
50 -23 31 8 45 42 32 76 -12 31 -22 32 -73 9z m47 -52 c-14 -15 -22 -17 -36
-9 -26 14 -24 26 9 43 24 12 28 12 35 -1 6 -9 3 -21 -8 -33z"/>
<path d="M2700 951 c0 -5 7 -14 15 -21 22 -18 18 -28 -9 -23 -13 3 -27 0 -30
-6 -5 -7 7 -11 34 -11 27 0 43 -5 46 -15 7 -17 24 -20 24 -4 0 13 -62 89 -72
89 -5 0 -8 -4 -8 -9z"/>
<path d="M2630 881 c0 -6 4 -13 10 -16 6 -4 5 -13 -2 -25 -10 -15 -9 -23 6
-39 26 -29 48 -26 68 9 l17 29 -46 26 c-51 28 -53 29 -53 16z m70 -61 c0 -18
-22 -22 -37 -7 -21 21 -8 40 18 27 10 -6 19 -15 19 -20z"/>
<path d="M366 855 c4 -8 10 -12 15 -9 11 6 2 24 -11 24 -5 0 -7 -7 -4 -15z"/>
<path d="M307 830 c-16 -10 -24 -21 -19 -24 11 -7 72 24 72 37 0 12 -23 7 -53
-13z"/>
<path d="M347 804 c-4 -4 -4 -19 -1 -33 l6 -26 -21 25 c-15 18 -21 21 -21 9 0
-21 36 -53 50 -44 7 4 9 18 6 31 -8 30 7 31 22 2 10 -22 11 -22 11 -2 1 32
-33 57 -52 38z"/>
<path d="M2596 769 c-17 -25 -12 -45 17 -61 17 -9 24 -7 39 12 23 29 23 36 -4
54 -29 21 -34 20 -52 -5z m44 -14 c9 -10 10 -19 4 -25 -13 -13 -49 13 -40 28
10 16 21 15 36 -3z"/>
<path d="M410 731 c0 -6 5 -13 10 -16 6 -3 10 -11 10 -17 0 -6 -8 -4 -18 5
-37 33 -63 13 -36 -28 19 -30 22 -30 54 -6 22 18 23 21 10 45 -13 26 -30 35
-30 17z m-9 -44 c-1 -12 -15 -9 -19 4 -3 6 1 10 8 8 6 -3 11 -8 11 -12z"/>
<path d="M2517 702 l-27 -28 41 -34 42 -33 18 24 c23 30 21 63 -6 68 -11 2
-24 10 -30 18 -9 11 -15 9 -38 -15z m33 -17 c0 -8 -7 -15 -15 -15 -16 0 -20
12 -8 23 11 12 23 8 23 -8z m40 -19 c0 -18 -17 -29 -30 -21 -8 5 -7 11 1 21
15 18 29 18 29 0z"/>
<path d="M448 656 l-38 -33 25 -23 c22 -20 28 -22 51 -12 18 9 24 19 22 34 -2
12 -8 23 -15 25 -7 3 -10 -3 -6 -15 5 -22 -24 -39 -40 -23 -9 9 37 60 56 61 5
0 5 5 2 10 -9 15 -17 12 -57 -24z"/>
<path d="M550 610 c0 -5 5 -10 10 -10 6 0 10 5 10 10 0 6 -4 10 -10 10 -5 0
-10 -4 -10 -10z"/>
<path d="M506 573 c-18 -15 -25 -28 -19 -34 6 -6 20 2 37 20 35 36 21 48 -18
14z"/>
<path d="M552 557 c-30 -31 -42 -58 -24 -56 14 1 73 77 64 83 -5 3 -23 -9 -40
-27z"/>
<path d="M2434 564 c-8 -33 15 -59 45 -49 22 7 49 45 32 45 -5 0 -11 -7 -15
-15 -3 -8 -13 -15 -22 -15 -15 0 -14 3 4 23 25 26 20 37 -14 37 -17 0 -25 -7
-30 -26z m31 -3 c-3 -6 -11 -11 -17 -11 -6 0 -6 6 2 15 14 17 26 13 15 -4z"/>
<path d="M616 552 c-3 -6 -1 -14 5 -17 15 -10 25 3 12 16 -7 7 -13 7 -17 1z"/>
<path d="M570 505 c-13 -14 -20 -28 -17 -32 8 -7 57 35 57 49 0 15 -16 8 -40
-17z"/>
<path d="M2336 521 c-5 -7 7 -28 28 -51 20 -22 38 -35 42 -29 3 6 -2 19 -12
30 -13 15 -15 22 -6 31 8 8 16 5 31 -13 23 -28 38 -20 19 10 -18 30 -47 37
-62 15 -13 -16 -14 -16 -23 1 -7 12 -12 14 -17 6z"/>
<path d="M635 509 c-11 -4 -16 -8 -12 -8 5 -1 -1 -13 -12 -27 -16 -21 -18 -30
-10 -40 15 -19 30 -18 23 1 -9 23 15 48 32 34 16 -13 9 -55 -12 -80 -8 -9 -12
-18 -9 -21 7 -7 105 44 105 55 0 11 -28 9 -35 -3 -11 -18 -26 -10 -20 11 4 13
1 27 -10 39 -9 10 -14 23 -11 29 9 14 -6 20 -29 10z"/>
<path d="M2293 459 c1 -10 5 -19 10 -19 5 0 16 -9 25 -21 17 -20 52 -18 52 3
0 6 -6 8 -14 5 -8 -3 -22 3 -32 14 -10 11 -12 19 -6 19 23 0 11 15 -12 16 -18
1 -24 -3 -23 -17z"/>
<path d="M805 400 c3 -5 10 -10 16 -10 5 0 9 5 9 10 0 6 -7 10 -16 10 -8 0
-12 -4 -9 -10z"/>
<path d="M2203 384 c-20 -15 -21 -16 -5 -45 10 -16 23 -29 31 -29 10 0 10 6
-4 26 -13 20 -14 29 -5 38 8 8 16 5 30 -14 24 -32 37 -20 15 14 -20 30 -31 31
-62 10z"/>
<path d="M772 356 c-26 -45 -13 -56 17 -15 15 20 20 34 13 41 -6 6 -17 -3 -30
-26z"/>
<path d="M815 339 c-4 -6 1 -16 11 -24 11 -7 16 -17 12 -21 -4 -4 -14 -1 -23
6 -9 7 -18 10 -21 7 -3 -3 6 -13 21 -23 34 -22 57 -5 37 27 -17 26 -5 40 13
16 8 -11 16 -14 19 -8 7 11 -24 31 -48 31 -8 0 -18 -5 -21 -11z"/>
<path d="M2116 335 c-19 -20 -20 -26 -3 -49 27 -38 95 2 71 42 -15 23 -48 27
-68 7z m49 -30 c0 -28 -29 -25 -33 3 -3 19 0 23 15 20 10 -2 18 -12 18 -23z"/>
<path d="M950 320 c0 -5 7 -10 16 -10 8 0 12 5 9 10 -3 6 -10 10 -16 10 -5 0
-9 -4 -9 -10z"/>
<path d="M1993 290 c1 -11 4 -20 8 -20 3 0 11 -11 17 -25 11 -24 52 -36 52
-15 0 6 -6 10 -14 10 -17 0 -31 33 -17 38 6 2 11 8 11 14 0 6 -7 8 -15 5 -8
-4 -17 -2 -20 3 -11 17 -24 11 -22 -10z"/>
<path d="M929 274 c-5 -15 -12 -31 -15 -35 -3 -5 1 -9 9 -9 8 0 20 14 26 31
13 39 13 39 1 39 -6 0 -15 -12 -21 -26z"/>
<path d="M972 254 c-7 -14 -12 -29 -12 -34 0 -19 17 -10 29 16 6 14 17 24 24
21 13 -5 13 -9 2 -44 -10 -34 11 -28 25 8 14 33 8 43 -31 53 -21 4 -28 1 -37
-20z"/>
<path d="M1938 259 c-22 -12 -23 -52 -3 -69 12 -10 21 -10 40 -2 29 14 32 42
7 65 -21 20 -21 20 -44 6z m40 -37 c3 -19 -1 -23 -15 -20 -10 2 -19 14 -21 26
-3 19 1 23 15 20 10 -2 19 -14 21 -26z"/>
<path d="M1123 248 c-17 -23 -15 -85 3 -92 21 -8 33 2 15 13 -20 13 -9 47 14
43 18 -2 18 -1 4 10 -9 7 -16 17 -17 21 -1 16 -9 18 -19 5z"/>
<path d="M1187 243 c-12 -20 -18 -93 -8 -93 6 0 11 9 11 19 0 24 18 37 32 23
7 -7 6 -17 -1 -30 -8 -15 -8 -23 0 -27 15 -10 18 -4 21 36 3 29 0 34 -20 37
-17 3 -21 8 -17 23 6 18 -9 27 -18 12z"/>
<path d="M1727 234 c-3 -3 -4 -11 -1 -18 2 -6 -6 -16 -18 -21 -27 -12 -35 -47
-15 -63 8 -7 27 -9 43 -6 l30 6 -10 54 c-10 52 -15 61 -29 48z m7 -60 c9 -25
7 -34 -8 -34 -19 0 -29 17 -22 35 7 20 22 19 30 -1z"/>
<path d="M1856 233 c-4 -5 -13 -8 -19 -8 -7 0 -12 -6 -11 -12 1 -7 2 -24 3
-38 0 -15 7 -25 16 -25 13 0 15 7 9 35 -5 28 -3 35 9 35 9 0 18 -13 22 -30 4
-17 11 -30 16 -30 12 0 11 10 -2 49 -11 30 -27 39 -43 24z"/>
<path d="M1410 155 c0 -62 17 -75 23 -17 3 32 5 34 12 14 8 -25 28 -25 33 1 2
11 -1 15 -11 11 -10 -3 -17 3 -21 20 -3 14 -13 26 -21 26 -11 0 -15 -13 -15
-55z"/>
<path d="M1487 202 c-8 -12 5 -102 14 -102 5 0 9 15 9 33 0 17 3 42 6 55 5 16
2 22 -9 22 -9 0 -18 -3 -20 -8z"/>
<path d="M1540 200 c0 -5 5 -10 10 -10 6 0 10 5 10 10 0 6 -4 10 -10 10 -5 0
-10 -4 -10 -10z"/>
<path d="M1276 184 c-32 -31 -11 -65 39 -63 l30 1 -29 7 c-17 3 -29 9 -28 14
1 4 2 14 2 22 0 8 7 15 15 15 18 0 20 -16 3 -23 -7 -3 -3 -6 10 -6 27 -1 29
24 3 39 -25 13 -27 13 -45 -6z"/>
<path d="M1586 183 c-1 -1 0 -18 2 -38 5 -43 22 -47 22 -5 0 20 5 30 15 30 9
0 15 -9 15 -24 0 -24 12 -41 22 -30 3 2 2 19 -1 37 -6 28 -11 32 -39 32 -18 1
-34 0 -36 -2z"/>
<path d="M1540 139 c0 -28 4 -39 13 -36 6 2 12 9 11 15 -1 7 -2 23 -2 37 -3
42 -22 28 -22 -16z"/>
<path d="M235 2449 c-4 -6 -5 -12 -2 -15 2 -3 7 2 10 11 7 17 1 20 -8 4z"/>
</g>
</svg>
